<svg width="24" height="24" viewBox="0 0 24 24" fill="none" xmlns="http://www.w3.org/2000/svg">
  <path d="M12 2C8.13 2 5 5.13 5 9V19C5 19.55 5.45 20 6 20C6.28 20 6.53 19.89 6.71 19.71L8 18.41L9.29 19.71C9.68 20.1 10.31 20.1 10.7 19.71L12 18.41L13.29 19.71C13.68 20.1 14.31 20.1 14.7 19.71L16 18.41L17.29 19.71C17.47 19.89 17.72 20 18 20C18.55 20 19 19.55 19 19V9C19 5.13 15.87 2 12 2ZM9.5 11C8.67 11 8 10.33 8 9.5C8 8.67 8.67 8 9.5 8C10.33 8 11 8.67 11 9.5C11 10.33 10.33 11 9.5 11ZM14.5 11C13.67 11 13 10.33 13 9.5C13 8.67 13.67 8 14.5 8C15.33 8 16 8.67 16 9.5C16 10.33 15.33 11 14.5 11Z" fill="white"/>
</svg>
